<?xml version="1.0" encoding="UTF-8" standalone="no"?>
<!DOCTYPE svg PUBLIC "-//W3C//DTD SVG 1.1//EN" "http://www.w3.org/Graphics/SVG/1.1/DTD/svg11.dtd">
<svg width="100%" height="100%" viewBox="0 0 500 500" version="1.1" xmlns="http://www.w3.org/2000/svg" xmlns:xlink="http://www.w3.org/1999/xlink" xml:space="preserve" xmlns:serif="http://www.serif.com/" style="fill-rule:evenodd;clip-rule:evenodd;stroke-linecap:round;stroke-linejoin:round;stroke-miterlimit:1.5;">
    <rect id="Artboard1" x="0" y="0" width="500" height="500" style="fill:none;"/>
    <clipPath id="_clip1">
        <rect id="Artboard11" serif:id="Artboard1" x="0" y="0" width="500" height="500"/>
    </clipPath>
    <g clip-path="url(#_clip1)">
        <g id="outer">
            <g>
                <path d="M114.471,385.529C39.671,310.728 39.671,189.272 114.471,114.471" style="fill:none;stroke:rgb(255,255,0);stroke-width:12px;"/>
                <g transform="matrix(1.41394,0,0,1.41394,-103.484,-103.484)">
                    <path d="M114.471,114.471L154.09,154.09" style="fill:none;stroke:rgb(255,255,0);stroke-width:8.49px;"/>
                </g>
                <g transform="matrix(-1.41394,0,0,1.41394,603.484,-103.484)">
                    <path d="M346.378,346.378L385.529,385.529" style="fill:none;stroke:rgb(255,255,0);stroke-width:8.49px;"/>
                </g>
            </g>
            <g transform="matrix(-1,-1.22465e-16,1.22465e-16,-1,503.971,500)">
                <path d="M114.471,385.529C39.671,310.728 39.671,189.272 114.471,114.471" style="fill:none;stroke:rgb(255,255,0);stroke-width:12px;"/>
                <g transform="matrix(1.41394,0,0,1.41394,-103.484,-103.484)">
                    <path d="M114.471,114.471L154.09,154.09" style="fill:none;stroke:rgb(255,255,0);stroke-width:8.49px;"/>
                </g>
                <g transform="matrix(-1.41394,0,0,1.41394,603.484,-103.484)">
                    <path d="M346.378,346.378L385.529,385.529" style="fill:none;stroke:rgb(255,255,0);stroke-width:8.49px;"/>
                </g>
            </g>
        </g>
        <g id="inner" transform="matrix(1.07195,0,0,1.07195,-18.1295,-17.9867)">
            <path d="M341.458,339.472C292.076,388.854 211.894,388.853 162.513,339.472" style="fill:none;stroke:rgb(255,255,0);stroke-width:11.19px;"/>
            <path d="M162.513,160.528C211.894,111.147 292.076,111.146 341.458,160.528" style="fill:none;stroke:rgb(255,255,0);stroke-width:11.19px;"/>
        </g>
        <g id="inner1" serif:id="inner" transform="matrix(2.32812e-17,0.380211,-0.380211,2.32812e-17,347.038,154.192)">
            <path d="M341.458,339.472C292.076,388.854 211.894,388.853 162.513,339.472" style="fill:none;stroke:rgb(255,255,0);stroke-width:15.78px;"/>
            <path d="M162.513,160.528C211.894,111.147 292.076,111.146 341.458,160.528" style="fill:none;stroke:rgb(255,255,0);stroke-width:15.78px;"/>
        </g>
    </g>
</svg>
